<?xml version="1.0" standalone="no"?>
<!DOCTYPE svg PUBLIC "-//W3C//DTD SVG 20010904//EN"
 "http://www.w3.org/TR/2001/REC-SVG-20010904/DTD/svg10.dtd">
<svg version="1.0" xmlns="http://www.w3.org/2000/svg"
 width="1024.000000pt" height="1024.000000pt" viewBox="0 0 1024.000000 1024.000000"
 preserveAspectRatio="xMidYMid meet">

<g transform="translate(0.000000,512.000000) scale(0.100000,-0.100000)"
fill="#1db954" stroke="none">
<path d="m5428 3125 c485 -50 951 -205 1347 -448 81 -49 285 -198 285 -207 0 -3
-69 -74 -153 -158 l-152 -152 -90 66 c-366 267 -837 441 -1311 485 -152 14
-413 6 -589 -17 -584 -76 -1108 -326 -1519 -724 -165 -161 -264 -279 -386
-462 -235 -353 -369 -699 -437 -1123 -25 -161 -25 -626 0 -780 101 -608 358
-1116 777 -1535 430 -431 976 -694 1587 -765 149 -17 470 -20 611 -4 241 26
540 104 781 205 330 139 623 343 891 620 352 364 562 749 679 1244 63 267 90
572 72 823 -15 204 -33 309 -87 512 -70 262 -155 463 -291 683 l-65 107 158
153 c86 83 161 152 165 152 13 0 133 -187 193 -300 373 -710 458 -1620 225
-2418 -273 -931 -1017 -1707 -1957 -2039 -406 -143 -902 -209 -1302 -173 -268
25 -521 77 -747 154 -640 220 -1132 582 -1541 1136 -352 478 -585 1135 -609
1715 -7 186 10 454 42 641 84 499 302 993 612 1391 314 404 656 701 1018 885
386 196 779 302 1270 341 115 10 393 5 523 -8z m2466 -294 c74 -36 123 -87
164 -171 24 -49 27 -66 27 -160 0 -95 -3 -111 -29 -167 -33 -73 -98 -139 -177
-179 -43 -22 -71 -28 -139 -32 -47 -2 -96 1 -110 6 -24 9 -57 -22 -599 -562
-316 -314 -744 -742 -951 -951 l-377 -379 20 -61 c29 -85 30 -286 3 -365 -71
-208 -221 -360 -421 -423 -57 -18 -94 -22 -195 -22 -101 0 -138 4 -195 22
-195 62 -348 214 -412 407 -34 104 -38 285 -9 381 51 171 176 321 327 393 109
52 173 66 289 65 114 -1 219 -32 318 -94 l64 -40 85 90 c46 50 470 470 941
934 l857 844 0 109 c0 98 3 115 28 169 50 108 101 158 204 201 49 21 71 24
140 21 67 -3 93 -9 147 -36z m-2459 -830 c209 -35 373 -86 553 -171 106 -51
262 -139 262 -150 0 -3 -67 -72 -148 -153 l-148 -148 -135 65 c-255 123 -493
173 -774 162 -182 -6 -301 -27 -460 -80 -225 -76 -422 -196 -598 -366 -176
-169 -288 -335 -377 -558 -199 -496 -142 -1053 153 -1500 379 -575 1073 -839
1757 -666 283 71 539 221 760 444 310 314 474 739 456 1185 -8 205 -38 354
-113 554 l-35 94 148 148 c105 105 151 145 160 138 23 -19 115 -220 154 -336
83 -249 119 -541 100 -799 -17 -225 -52 -386 -127 -574 -233 -590 -703 -1040
-1278 -1224 -424 -136 -935 -128 -1333 20 -667 248 -1148 814 -1298 1527 -49
235 -45 553 12 824 106 512 449 1004 887 1272 103 63 291 155 398 195 157 58
313 93 529 120 82 10 380 -4 495 -23z"/>
</g>
</svg>
